<svg width="74" height="74" viewBox="0 0 74 74" fill="none" xmlns="http://www.w3.org/2000/svg">
<g filter="url(#filter0_d_169_54)">
<path d="M24 33L27.2692 25.1538C30.688 16.9487 42.312 16.9487 45.7308 25.1538L49 33" stroke="#FFF9EF" stroke-width="3" stroke-linecap="round" shape-rendering="crispEdges"/>
</g>
<g filter="url(#filter1_d_169_54)">
<path d="M20.0749 34.8967C19.5153 31.8268 21.8734 29 24.9939 29H48.0061C51.1266 29 53.4847 31.8268 52.9251 34.8967L50.373 48.8967C49.9398 51.2731 47.8696 53 45.4541 53H45.25H36.5H27.75H27.5459C25.1304 53 23.0602 51.2731 22.627 48.8967L20.0749 34.8967Z" fill="#FFF9EF"/>
<path d="M24.9941 29.5H48.0059C50.7266 29.5 52.8035 31.8877 52.4727 34.5488L52.4336 34.8066L49.8809 48.8066C49.491 50.9454 47.6281 52.5 45.4541 52.5H27.5459C25.4399 52.5 23.626 51.0414 23.1602 49.0059L23.1191 48.8066L20.5664 34.8066C20.0631 32.0439 22.1859 29.5 24.9941 29.5Z" stroke="#FFF9EF"/>
</g>
<path d="M42 36V46" stroke="#617F63" stroke-opacity="0.7" stroke-width="3" stroke-linecap="round"/>
<path d="M37 36V46" stroke="#617F63" stroke-opacity="0.7" stroke-width="3" stroke-linecap="round"/>
<path d="M32 36V46" stroke="#617F63" stroke-opacity="0.7" stroke-width="3" stroke-linecap="round"/>
<defs>
<filter id="filter0_d_169_54" x="18.5" y="13.5" width="36" height="25.0005" filterUnits="userSpaceOnUse" color-interpolation-filters="sRGB">
<feFlood flood-opacity="0" result="BackgroundImageFix"/>
<feColorMatrix in="SourceAlpha" type="matrix" values="0 0 0 0 0 0 0 0 0 0 0 0 0 0 0 0 0 0 127 0" result="hardAlpha"/>
<feOffset/>
<feGaussianBlur stdDeviation="2"/>
<feComposite in2="hardAlpha" operator="out"/>
<feColorMatrix type="matrix" values="0 0 0 0 0 0 0 0 0 0 0 0 0 0 0 0 0 0 0.35 0"/>
<feBlend mode="normal" in2="BackgroundImageFix" result="effect1_dropShadow_169_54"/>
<feBlend mode="normal" in="SourceGraphic" in2="effect1_dropShadow_169_54" result="shape"/>
</filter>
<filter id="filter1_d_169_54" x="15.9922" y="25" width="41.0156" height="32" filterUnits="userSpaceOnUse" color-interpolation-filters="sRGB">
<feFlood flood-opacity="0" result="BackgroundImageFix"/>
<feColorMatrix in="SourceAlpha" type="matrix" values="0 0 0 0 0 0 0 0 0 0 0 0 0 0 0 0 0 0 127 0" result="hardAlpha"/>
<feOffset/>
<feGaussianBlur stdDeviation="2"/>
<feComposite in2="hardAlpha" operator="out"/>
<feColorMatrix type="matrix" values="0 0 0 0 0 0 0 0 0 0 0 0 0 0 0 0 0 0 0.35 0"/>
<feBlend mode="normal" in2="BackgroundImageFix" result="effect1_dropShadow_169_54"/>
<feBlend mode="normal" in="SourceGraphic" in2="effect1_dropShadow_169_54" result="shape"/>
</filter>
</defs>
</svg>
