<svg width="110" height="110" viewBox="0 0 110 110" fill="none" xmlns="http://www.w3.org/2000/svg">
<g clip-path="url(#clip0_50_61)">
<path d="M72.8378 0H37.1622C16.6381 0 0 16.6381 0 37.1622V72.8378C0 93.3619 16.6381 110 37.1622 110H72.8378C93.3619 110 110 93.3619 110 72.8378V37.1622C110 16.6381 93.3619 0 72.8378 0Z" fill="#A3B2A0"/>
<g filter="url(#filter0_d_50_61)">
<path d="M35.6758 49.054L40.5354 37.3907C45.6174 25.194 62.8963 25.194 67.9783 37.3907L72.8379 49.054" stroke="#FFF9EF" stroke-width="3" stroke-linecap="round"/>
</g>
<g filter="url(#filter1_d_50_61)">
<path d="M29.8409 51.8735C29.0091 47.3102 32.5144 43.1082 37.1529 43.1082H71.3603C75.9988 43.1082 79.5041 47.3102 78.6723 51.8735L74.8786 72.6843C74.2347 76.2168 71.1574 78.7838 67.5667 78.7838H67.2634H54.2566H41.2498H40.9464C37.3558 78.7838 34.2785 76.2168 33.6346 72.6843L29.8409 51.8735Z" fill="#FFF9EF"/>
</g>
<path d="M62.4326 53.5134V68.3783" stroke="#A3B2A0" stroke-width="3" stroke-linecap="round"/>
<path d="M55 53.5134V68.3783" stroke="#A3B2A0" stroke-width="3" stroke-linecap="round"/>
<path d="M47.5674 53.5134V68.3783" stroke="#A3B2A0" stroke-width="3" stroke-linecap="round"/>
</g>
<defs>
<filter id="filter0_d_50_61" x="30.1753" y="22.7432" width="48.1631" height="31.8113" filterUnits="userSpaceOnUse" color-interpolation-filters="sRGB">
<feFlood flood-opacity="0" result="BackgroundImageFix"/>
<feColorMatrix in="SourceAlpha" type="matrix" values="0 0 0 0 0 0 0 0 0 0 0 0 0 0 0 0 0 0 127 0" result="hardAlpha"/>
<feOffset/>
<feGaussianBlur stdDeviation="2"/>
<feComposite in2="hardAlpha" operator="out"/>
<feColorMatrix type="matrix" values="0 0 0 0 0 0 0 0 0 0 0 0 0 0 0 0 0 0 0.35 0"/>
<feBlend mode="normal" in2="BackgroundImageFix" result="effect1_dropShadow_50_61"/>
<feBlend mode="normal" in="SourceGraphic" in2="effect1_dropShadow_50_61" result="shape"/>
</filter>
<filter id="filter1_d_50_61" x="25.7183" y="39.1082" width="57.0767" height="43.6758" filterUnits="userSpaceOnUse" color-interpolation-filters="sRGB">
<feFlood flood-opacity="0" result="BackgroundImageFix"/>
<feColorMatrix in="SourceAlpha" type="matrix" values="0 0 0 0 0 0 0 0 0 0 0 0 0 0 0 0 0 0 127 0" result="hardAlpha"/>
<feOffset/>
<feGaussianBlur stdDeviation="2"/>
<feComposite in2="hardAlpha" operator="out"/>
<feColorMatrix type="matrix" values="0 0 0 0 0 0 0 0 0 0 0 0 0 0 0 0 0 0 0.35 0"/>
<feBlend mode="normal" in2="BackgroundImageFix" result="effect1_dropShadow_50_61"/>
<feBlend mode="normal" in="SourceGraphic" in2="effect1_dropShadow_50_61" result="shape"/>
</filter>
<clipPath id="clip0_50_61">
<rect width="110" height="110" fill="white"/>
</clipPath>
</defs>
</svg>
