<svg width="112" height="110" viewBox="0 0 112 110" fill="none" xmlns="http://www.w3.org/2000/svg">
<rect x="0.504883" width="110.509" height="110" rx="30" fill="#A3B2A0"/>
<path d="M48.8533 21.2853C50.9602 14.86 60.0496 14.86 62.1564 21.2852L66.273 33.8396C67.2157 36.7146 69.8989 38.6586 72.9246 38.6586H86.1092C92.9057 38.6586 95.7149 47.3685 90.1991 51.3395L79.6428 58.9393C77.167 60.7218 76.1306 63.9024 77.0812 66.8013L81.1392 79.1771C83.2502 85.6151 75.8962 90.9977 70.3978 87.0391L59.5948 79.2616C57.1518 77.5028 53.858 77.5028 51.415 79.2616L40.612 87.0391C35.1135 90.9977 27.7595 85.6151 29.8705 79.1771L33.9286 66.8013C34.8791 63.9024 33.8428 60.7218 31.367 58.9393L20.8107 51.3395C15.2949 47.3685 18.104 38.6586 24.9006 38.6586H38.0852C41.1108 38.6586 43.794 36.7146 44.7368 33.8396L48.8533 21.2853Z" fill="#FFF9EF"/>
</svg>
