<svg width="110" height="110" viewBox="0 0 110 110" fill="none" xmlns="http://www.w3.org/2000/svg">
<g clip-path="url(#clip0_50_72)">
<path d="M72.8378 0H37.1622C16.6381 0 0 16.6381 0 37.1622V72.8378C0 93.3619 16.6381 110 37.1622 110H72.8378C93.3619 110 110 93.3619 110 72.8378V37.1622C110 16.6381 93.3619 0 72.8378 0Z" fill="#A3B2A0"/>
<g filter="url(#filter0_d_50_72)">
<path d="M76.554 35.6758H31.9594C29.907 35.6758 28.2432 37.3396 28.2432 39.392C28.2432 41.4444 29.907 43.1082 31.9594 43.1082H76.554C78.6064 43.1082 80.2702 41.4444 80.2702 39.392C80.2702 37.3396 78.6064 35.6758 76.554 35.6758Z" fill="#FFF9EF"/>
</g>
<g filter="url(#filter1_d_50_72)">
<path d="M76.554 65.4055H31.9594C29.907 65.4055 28.2432 67.0693 28.2432 69.1217C28.2432 71.1741 29.907 72.838 31.9594 72.838H76.554C78.6064 72.838 80.2702 71.1741 80.2702 69.1217C80.2702 67.0693 78.6064 65.4055 76.554 65.4055Z" fill="#FFF9EF"/>
</g>
<g filter="url(#filter2_d_50_72)">
<path d="M76.554 50.5405H31.9594C29.907 50.5405 28.2432 52.2043 28.2432 54.2567C28.2432 56.3092 29.907 57.973 31.9594 57.973H76.554C78.6064 57.973 80.2702 56.3092 80.2702 54.2567C80.2702 52.2043 78.6064 50.5405 76.554 50.5405Z" fill="#FFF9EF"/>
</g>
</g>
<defs>
<filter id="filter0_d_50_72" x="24.2432" y="31.6758" width="60.0269" height="15.4324" filterUnits="userSpaceOnUse" color-interpolation-filters="sRGB">
<feFlood flood-opacity="0" result="BackgroundImageFix"/>
<feColorMatrix in="SourceAlpha" type="matrix" values="0 0 0 0 0 0 0 0 0 0 0 0 0 0 0 0 0 0 127 0" result="hardAlpha"/>
<feOffset/>
<feGaussianBlur stdDeviation="2"/>
<feComposite in2="hardAlpha" operator="out"/>
<feColorMatrix type="matrix" values="0 0 0 0 0 0 0 0 0 0 0 0 0 0 0 0 0 0 0.25 0"/>
<feBlend mode="normal" in2="BackgroundImageFix" result="effect1_dropShadow_50_72"/>
<feBlend mode="normal" in="SourceGraphic" in2="effect1_dropShadow_50_72" result="shape"/>
</filter>
<filter id="filter1_d_50_72" x="24.2432" y="61.4055" width="60.0269" height="15.4324" filterUnits="userSpaceOnUse" color-interpolation-filters="sRGB">
<feFlood flood-opacity="0" result="BackgroundImageFix"/>
<feColorMatrix in="SourceAlpha" type="matrix" values="0 0 0 0 0 0 0 0 0 0 0 0 0 0 0 0 0 0 127 0" result="hardAlpha"/>
<feOffset/>
<feGaussianBlur stdDeviation="2"/>
<feComposite in2="hardAlpha" operator="out"/>
<feColorMatrix type="matrix" values="0 0 0 0 0 0 0 0 0 0 0 0 0 0 0 0 0 0 0.25 0"/>
<feBlend mode="normal" in2="BackgroundImageFix" result="effect1_dropShadow_50_72"/>
<feBlend mode="normal" in="SourceGraphic" in2="effect1_dropShadow_50_72" result="shape"/>
</filter>
<filter id="filter2_d_50_72" x="24.2432" y="46.5405" width="60.0269" height="15.4324" filterUnits="userSpaceOnUse" color-interpolation-filters="sRGB">
<feFlood flood-opacity="0" result="BackgroundImageFix"/>
<feColorMatrix in="SourceAlpha" type="matrix" values="0 0 0 0 0 0 0 0 0 0 0 0 0 0 0 0 0 0 127 0" result="hardAlpha"/>
<feOffset/>
<feGaussianBlur stdDeviation="2"/>
<feComposite in2="hardAlpha" operator="out"/>
<feColorMatrix type="matrix" values="0 0 0 0 0 0 0 0 0 0 0 0 0 0 0 0 0 0 0.25 0"/>
<feBlend mode="normal" in2="BackgroundImageFix" result="effect1_dropShadow_50_72"/>
<feBlend mode="normal" in="SourceGraphic" in2="effect1_dropShadow_50_72" result="shape"/>
</filter>
<clipPath id="clip0_50_72">
<rect width="110" height="110" fill="white"/>
</clipPath>
</defs>
</svg>
