<svg width="74" height="74" viewBox="0 0 74 74" fill="none" xmlns="http://www.w3.org/2000/svg">
<g filter="url(#filter0_d_133_14)">
<path d="M49.0225 45.5305L47.5531 43.508L43.508 46.4469L44.9775 48.4695L49.0225 45.5305ZM50.8553 56.5596C51.6669 57.6767 53.2303 57.9243 54.3473 57.1127C55.4643 56.3012 55.712 54.7377 54.9004 53.6207L50.8553 56.5596ZM47 47L44.9775 48.4695L50.8553 56.5596L52.8779 55.0902L54.9004 53.6207L49.0225 45.5305L47 47Z" fill="#21422C" fill-opacity="0.7"/>
</g>
<g filter="url(#filter1_d_133_14)">
<circle cx="37" cy="34" r="15" fill="#21422C" fill-opacity="0.7" shape-rendering="crispEdges"/>
<circle cx="37" cy="34" r="14.5" stroke="#415643" shape-rendering="crispEdges"/>
</g>
<path d="M39.4664 44L39.7716 43.8644C42.5055 42.6493 44.8136 40.6445 46.3993 38.1075L46.4666 37.9999" stroke="#F2E7D5" stroke-width="4" stroke-linecap="round"/>
<defs>
<filter id="filter0_d_133_14" x="39.5078" y="43.508" width="19.8701" height="22.0823" filterUnits="userSpaceOnUse" color-interpolation-filters="sRGB">
<feFlood flood-opacity="0" result="BackgroundImageFix"/>
<feColorMatrix in="SourceAlpha" type="matrix" values="0 0 0 0 0 0 0 0 0 0 0 0 0 0 0 0 0 0 127 0" result="hardAlpha"/>
<feOffset dy="4"/>
<feGaussianBlur stdDeviation="2"/>
<feComposite in2="hardAlpha" operator="out"/>
<feColorMatrix type="matrix" values="0 0 0 0 0 0 0 0 0 0 0 0 0 0 0 0 0 0 0.25 0"/>
<feBlend mode="normal" in2="BackgroundImageFix" result="effect1_dropShadow_133_14"/>
<feBlend mode="normal" in="SourceGraphic" in2="effect1_dropShadow_133_14" result="shape"/>
</filter>
<filter id="filter1_d_133_14" x="15" y="12" width="44" height="44" filterUnits="userSpaceOnUse" color-interpolation-filters="sRGB">
<feFlood flood-opacity="0" result="BackgroundImageFix"/>
<feColorMatrix in="SourceAlpha" type="matrix" values="0 0 0 0 0 0 0 0 0 0 0 0 0 0 0 0 0 0 127 0" result="hardAlpha"/>
<feMorphology radius="3" operator="dilate" in="SourceAlpha" result="effect1_dropShadow_133_14"/>
<feOffset/>
<feGaussianBlur stdDeviation="2"/>
<feComposite in2="hardAlpha" operator="out"/>
<feColorMatrix type="matrix" values="0 0 0 0 0 0 0 0 0 0 0 0 0 0 0 0 0 0 0.25 0"/>
<feBlend mode="normal" in2="BackgroundImageFix" result="effect1_dropShadow_133_14"/>
<feBlend mode="normal" in="SourceGraphic" in2="effect1_dropShadow_133_14" result="shape"/>
</filter>
</defs>
</svg>
